<svg width="41" height="41" viewBox="0 0 41 41" fill="none" xmlns="http://www.w3.org/2000/svg">
<path d="M8.96875 13.4531L9.60938 12.9406V5.76562C9.60938 4.93409 9.87908 4.12498 10.3781 3.45938C11.104 2.49139 12.243 1.92188 13.4531 1.92188H12.1719H10.8906C9.68048 1.92188 8.54145 2.49139 7.81562 3.45938C7.31658 4.12498 7.04688 4.93409 7.04688 5.76562V14.0938H7.6875H8.96875V13.4531Z" fill="#66351E"/>
<path d="M12.1719 10.8906H12.8125V8.96875C12.8125 6.49209 14.8202 4.48438 17.2969 4.48438H19.8594H23.0625C23.0625 3.06923 21.4084 1.92188 18.5781 1.92188H13.4531C12.243 1.92188 11.104 2.49139 10.3781 3.45938C9.87908 4.12498 9.60938 4.93409 9.60938 5.76562V12.9406L12.1719 10.8906Z" fill="#4D2817"/>
<path d="M18.5781 1.28125H10.8906C9.48638 1.28125 8.14555 1.95198 7.30312 3.075C6.72464 3.84567 6.40625 4.80148 6.40625 5.76562V16.0156H7.6875V5.76562C7.6875 5.07695 7.91492 4.39405 8.32812 3.84375C8.92967 3.04169 9.88741 2.5625 10.8906 2.5625H18.5781C21.1015 2.5625 22.4219 3.5292 22.4219 4.48438H23.7031C23.7031 2.88986 22.1182 1.28125 18.5781 1.28125Z" fill="#606060"/>
<path d="M26.2656 27.7737C28.0485 28.4956 29.4688 29.3188 29.4688 30.1094V39.7188H2.5625V30.1094C2.5625 27.9863 12.8125 25.625 12.8125 25.625H19.2188L26.2656 27.7737Z" fill="#D0382A"/>
<path d="M26.2656 29.6955L19.2188 27.5469H12.8125C12.8125 27.5469 3.76688 29.6315 2.67205 31.6437L2.5625 30.1094C2.5625 27.9863 12.8125 25.625 12.8125 25.625H19.2188L26.2656 27.7737C28.0485 28.4956 29.4688 29.3188 29.4688 30.1094L29.3579 31.659C29.0056 30.9864 27.7705 30.3048 26.2656 29.6955Z" fill="#B33024"/>
<path d="M6.40625 19.2188H7.6875V39.7188H6.40625V19.2188Z" fill="#878787"/>
<path d="M26.2656 17.9375V15.375C26.2656 13.9599 25.1183 12.8125 23.7031 12.8125H23.0625V17.9375H26.2656Z" fill="#606060"/>
<path d="M19.8594 6.40625V4.48438H17.2969C14.8202 4.48438 12.8125 6.49209 12.8125 8.96875V10.8906H15.375C17.8517 10.8906 19.8594 8.88291 19.8594 6.40625Z" fill="#66351E"/>
<path d="M19.8594 6.40625C19.8594 8.88291 17.8517 10.8906 15.375 10.8906H19.2188C21.6954 10.8906 23.7031 8.88291 23.7031 6.40625V4.48438H23.0625H19.8594V6.40625Z" fill="#66351E"/>
<path d="M19.2188 10.8906H23.0625C23.7512 10.8906 24.4014 10.7305 24.9844 10.4531V10.446V10.4531C26.4982 9.73302 27.5469 8.19359 27.5469 6.40625V4.48438H23.7031V6.40625C23.7031 8.88291 21.6954 10.8906 19.2188 10.8906Z" fill="#66351E"/>
<path d="M23.7031 12.8125H23.0625V14.0938C24.4776 14.0938 25.625 15.2411 25.625 16.6562V17.9375H26.2656V15.375C26.2656 13.9599 25.1183 12.8125 23.7031 12.8125Z" fill="#878787"/>
<path d="M13.3647 23.3034C13.8433 23.566 14.3795 23.7031 14.9253 23.7031H17.1066C17.6518 23.7031 18.1886 23.566 18.6672 23.3034L19.2188 23.001V26.9062C17.45 28.675 14.5813 28.675 12.8125 26.9062V23.001L13.3647 23.3034Z" fill="#FCE0B9"/>
<path d="M12.8125 23.001L13.3647 23.3034C13.8433 23.566 14.3795 23.7031 14.9253 23.7031H17.1066C17.6518 23.7031 18.1886 23.566 18.6672 23.3034L19.2188 23.001V26.9062C19.1175 27.0075 19.0118 27.101 18.9042 27.1907L12.8125 23.2457V23.001Z" fill="#D4B994"/>
<path d="M15.375 9.60938H12.8125V10.8906H15.375C17.8517 10.8906 19.8594 8.88291 19.8594 6.40625V5.125C19.8594 7.60166 17.8517 9.60938 15.375 9.60938Z" fill="#3D2012"/>
<path d="M19.2188 9.60938H18.5102C17.7017 10.4012 16.596 10.8906 15.375 10.8906H19.2188C21.6954 10.8906 23.7031 8.88291 23.7031 6.40625V5.125C23.7031 7.60166 21.6954 9.60938 19.2188 9.60938Z" fill="#4D2817"/>
<path d="M24.9844 9.17183C24.4014 9.44922 23.7512 9.60938 23.0625 9.60938H22.354C21.5455 10.4012 20.4398 10.8906 19.2188 10.8906H23.0625C23.7512 10.8906 24.4014 10.7305 24.9844 10.4531C26.4982 9.73302 27.5469 8.19359 27.5469 6.40625V5.125C27.5469 6.91298 26.4982 8.45177 24.9844 9.17183Z" fill="#3D2012"/>
<path d="M6.40625 36.5156L12.8125 35.2344H16.6562C17.7178 35.2344 18.5781 36.0947 18.5781 37.1562V39.7188H6.40625V36.5156Z" fill="#FCE0B9"/>
<path d="M8.96875 18.6998V12.8125H7.6875C6.27236 12.8125 5.125 13.9599 5.125 15.375V17.9375C5.125 19.3526 6.27236 20.5 7.6875 20.5H9.42295C9.13147 19.951 8.96875 19.336 8.96875 18.6998Z" fill="#606060"/>
<path d="M7.04688 18.5781V16.0156C7.04688 14.8228 7.86559 13.8292 8.96875 13.5435V12.8125H7.6875C6.27236 12.8125 5.125 13.9599 5.125 15.375V17.9375C5.125 19.3526 6.27236 20.5 7.6875 20.5H7.93094C7.39345 20.0304 7.04688 19.3482 7.04688 18.5781Z" fill="#878787"/>
<path d="M12.1719 10.8906H23.0625V18.6998C23.0625 19.8408 22.5558 20.9222 21.6794 21.6525L18.6665 23.3034C18.188 23.566 17.6518 23.7031 17.106 23.7031H14.9246C14.3795 23.7031 13.8426 23.566 13.3641 23.3034L10.3512 21.6525C9.47548 20.9222 8.96875 19.8402 8.96875 18.6998V13.4531L12.1719 10.8906Z" fill="#FCE0B9"/>
<path d="M17.2969 16.0156C16.9433 16.0156 16.6562 16.3026 16.6562 16.6562V23.7031H17.106C17.6511 23.7031 18.188 23.566 18.6665 23.3034L21.6794 21.6525C22.5558 20.9222 23.0625 19.8402 23.0625 18.6998V16.0156H17.2969Z" fill="#F0D2A8"/>
<path d="M18.5781 17.9375V23.345V26.2656V32.0312H27.5469V21.1406C27.5469 20.4327 28.1202 19.8594 28.8281 19.8594C29.536 19.8594 30.1094 20.4327 30.1094 21.1406V32.0312H39.0781V17.9375H18.5781Z" fill="#383838"/>
<path d="M28.8281 19.8594C28.1202 19.8594 27.5469 20.4327 27.5469 21.1406V32.0312V36.5156H30.1094V32.0312V21.1406C30.1094 20.4327 29.536 19.8594 28.8281 19.8594Z" fill="#383838"/>
<path d="M23.0625 37.1562V39.7188H34.5938V37.1562C34.5938 36.8026 34.3068 36.5156 33.9531 36.5156H30.1094H27.5469H23.7031C23.3495 36.5156 23.0625 36.8026 23.0625 37.1562Z" fill="#383838"/>
<path d="M26.2656 19.5147V32.0312H27.5469V21.1406C27.5469 20.4327 28.1202 19.8594 28.8281 19.8594C29.536 19.8594 30.1094 20.4327 30.1094 21.1406V32.0312H31.3906V19.5147C31.3906 18.6435 30.2433 17.9375 28.8281 17.9375C27.413 17.9375 26.2656 18.6435 26.2656 19.5147Z" fill="#262626"/>
<path d="M23.0625 37.7969H34.5938V39.7188H23.0625V37.7969Z" fill="#262626"/>
<path d="M8.96875 13.4531V15.5352L10.3973 14.464C12.3807 12.9759 14.7933 12.1719 17.2732 12.1719H23.0625V10.8906H12.1719L8.96875 13.4531Z" fill="#F0D2A8"/>
<path d="M13.4531 17.2969C13.8069 17.2969 14.0938 16.8666 14.0938 16.3359C14.0938 15.8052 13.8069 15.375 13.4531 15.375C13.0993 15.375 12.8125 15.8052 12.8125 16.3359C12.8125 16.8666 13.0993 17.2969 13.4531 17.2969Z" fill="#2B2210"/>
<path d="M19.8594 17.2969C20.2132 17.2969 20.5 16.8666 20.5 16.3359C20.5 15.8052 20.2132 15.375 19.8594 15.375C19.5056 15.375 19.2188 15.8052 19.2188 16.3359C19.2188 16.8666 19.5056 17.2969 19.8594 17.2969Z" fill="#2B2210"/>
<path d="M13.7734 16.6562C13.9503 16.6562 14.0938 16.5128 14.0938 16.3359C14.0938 16.159 13.9503 16.0156 13.7734 16.0156C13.5965 16.0156 13.4531 16.159 13.4531 16.3359C13.4531 16.5128 13.5965 16.6562 13.7734 16.6562Z" fill="white"/>
<path d="M20.1797 16.6562C20.3566 16.6562 20.5 16.5128 20.5 16.3359C20.5 16.159 20.3566 16.0156 20.1797 16.0156C20.0028 16.0156 19.8594 16.159 19.8594 16.3359C19.8594 16.5128 20.0028 16.6562 20.1797 16.6562Z" fill="white"/>
</svg>
