<svg width="20" height="20" viewBox="0 0 512 512" fill="none" xmlns="http://www.w3.org/2000/svg">
<g clip-path="url(#clip0_306_7)">
<path d="M507.607 216.525C513.464 210.668 513.464 201.17 507.607 195.312L316.69 4.39399C310.832 -1.46401 301.335 -1.46401 295.477 4.39399L221.23 78.639L433.361 290.772L507.607 216.525ZM153.616 485.616C170.631 468.601 180.002 446.009 180.001 422.001C180.001 404.018 209.223 367.819 239.106 355.44C247.749 351.861 259.532 349.074 266.586 356.128L274.783 364.324L274.869 364.411C286.167 375.709 301.234 381.931 317.297 381.931C333.357 381.93 348.425 375.707 359.723 364.409L412.149 311.984L200.018 99.852L147.591 152.279C136.293 163.577 130.07 178.644 130.07 194.707C130.07 210.768 136.292 225.835 147.605 237.149C147.647 237.191 148.237 237.779 155.875 245.416C158.871 248.413 160.268 252.09 160.268 256.988C160.268 286.416 113.585 332.001 90.001 332.001C40.377 332 0.002 372.373 0 421.999V422.001C0.001 446.01 9.372 468.602 26.387 485.614C43.401 502.63 65.993 512 90.001 512C114.009 512 136.602 502.63 153.616 485.616ZM75 422C75 413.716 81.716 407 90 407C98.284 407 105 413.716 105 422C105 430.284 98.284 437 90 437C81.716 437 75 430.285 75 422Z" fill="#039FD1"/>
</g>
<defs>
<clipPath id="clip0_306_7">
<rect width="512" height="512" fill="white"/>
</clipPath>
</defs>
</svg>
